HIERARCHY
ROOT Hips
{
	OFFSET -3.958830 18.904000 13.208200
	CHANNELS 6 Xposition Yposition Zposition Zrotation Yrotation Xrotation 
	JOINT LHipJoint
	{
		OFFSET 0.000000 0.000000 0.000000
		CHANNELS 3 Zrotation Yrotation Xrotation
		JOINT LeftUpLeg
		{
			OFFSET 1.800000 -1.400000 0.085000
			CHANNELS 3 Zrotation Yrotation Xrotation
			JOINT LeftLeg
			{
				OFFSET 2.215000 -6.000000 0.000000
				CHANNELS 3 Zrotation Yrotation Xrotation
				JOINT LeftFoot
				{
					OFFSET 2.500000 -6.900000 0.000000
					CHANNELS 3 Zrotation Yrotation Xrotation
					JOINT LeftToeBase
					{
						OFFSET 0.200000 -0.500000 1.950000
						CHANNELS 3 Zrotation Yrotation Xrotation
						End Site
						{
							OFFSET 0.000000 0.000000 0.000000
						}
					}
				}
			}
		}
	}
	JOINT RHipJoint
	{
		OFFSET 0.000000 0.000000 0.000000
		CHANNELS 3 Zrotation Yrotation Xrotation
		JOINT RightUpLeg
		{
			OFFSET -1.800000 -1.400000 0.085000
			CHANNELS 3 Zrotation Yrotation Xrotation
			JOINT RightLeg
			{
				OFFSET -2.215000 -6.000000 0.000000
				CHANNELS 3 Zrotation Yrotation Xrotation
				JOINT RightFoot
				{
					OFFSET -2.500000 -6.900000 0.000000
					CHANNELS 3 Zrotation Yrotation Xrotation
					JOINT RightToeBase
					{
						OFFSET -0.200000 -0.500000 1.950000
						CHANNELS 3 Zrotation Yrotation Xrotation
						End Site
						{
							OFFSET 0.000000 0.000000 0.000000
						}
					}
				}
			}
		}
	}
	JOINT LowerBack
	{
		OFFSET 0.000000 0.000000 0.000000
		CHANNELS 3 Zrotation Yrotation Xrotation
		JOINT Spine
		{
			OFFSET -0.087000 1.940000 -0.288900
			CHANNELS 3 Zrotation Yrotation Xrotation
			JOINT Spine1
			{
				OFFSET 0.000000 1.950000 0.060000
				CHANNELS 3 Zrotation Yrotation Xrotation
				JOINT Neck
				{
					OFFSET 0.000000 0.000000 0.000000
					CHANNELS 3 Zrotation Yrotation Xrotation
					JOINT Neck1
					{
						OFFSET 0.000000 1.600000 0.340000
						CHANNELS 3 Zrotation Yrotation Xrotation
						JOINT Head
						{
							OFFSET 0.000000 1.667000 -0.240000
							CHANNELS 3 Zrotation Yrotation Xrotation
							End Site
							{
								OFFSET 0.000000 0.000000 0.000000
							}
						}
					}
				}
				JOINT LeftShoulder
				{
					OFFSET 0.000000 0.000000 0.000000
					CHANNELS 3 Zrotation Yrotation Xrotation
					JOINT LeftArm
					{
						OFFSET 2.700000 1.550000 -0.730000
						CHANNELS 3 Zrotation Yrotation Xrotation
						JOINT LeftForeArm
						{
							OFFSET 5.450000 0.000000 0.000000
							CHANNELS 3 Zrotation Yrotation Xrotation
							JOINT LeftHand
							{
								OFFSET 3.450000 0.000000 0.000000
								CHANNELS 3 Zrotation Yrotation Xrotation
								JOINT LeftHandIndex1
								{
									OFFSET 0.750000 0.000000 0.000000
									CHANNELS 3 Zrotation Yrotation Xrotation
									End Site
									{
										OFFSET 0.000000 0.000000 0.000000
									}
								}
							}
						}
					}
				}
				JOINT RightShoulder
				{
					OFFSET 0.000000 0.000000 0.000000
					CHANNELS 3 Zrotation Yrotation Xrotation
					JOINT RightArm
					{
						OFFSET -2.700000 1.550000 -0.730000
						CHANNELS 3 Zrotation Yrotation Xrotation
						JOINT RightForeArm
						{
							OFFSET -5.450000 0.000000 0.000000
							CHANNELS 3 Zrotation Yrotation Xrotation
							JOINT RightHand
							{
								OFFSET -3.450000 0.000000 0.000000
								CHANNELS 3 Zrotation Yrotation Xrotation
								JOINT RightHandIndex1
								{
									OFFSET -0.750000 0.000000 0.000000
									CHANNELS 3 Zrotation Yrotation Xrotation
									End Site
									{
										OFFSET 0.000000 0.000000 0.000000
									}
								}
							}
						}
					}
				}
			}
		}
	}
}
MOTION
Frames: 10
Frame Time: 0.016667
-0.783630 15.728130 6.962220 -12.770210 78.123081 -18.036027 -15.445136 15.053409 2.432556 14.241440 -3.049435 0.560858 -0.213138 8.871169 34.861244 0.284003 7.351629 1.943293 0.157330 0.080720 0.246070 17.945150 -9.403650 3.671372 2.681850 4.411751 -42.345143 -18.683953 0.910133 32.520695 -0.338006 -3.548404 2.934103 0.071440 -0.110690 0.044350 -2.651884 -6.136553 -7.586763 2.805314 -10.842365 18.829038 -1.832376 -10.092649 5.289489 1.985308 -9.399513 -11.773826 -21.912481 15.238753 26.378449 -11.882570 13.705240 -20.231250 -31.284248 -14.011608 5.409966 -53.320666 -13.240591 -3.914363 -34.806719 -54.398594 13.204745 -3.260457 3.323389 0.503160 -0.125140 0.223260 -0.015790 28.810056 15.804725 10.075520 64.142463 2.203550 -19.324500 -3.982571 84.625742 -10.877522 1.945435 -1.334430 -0.188000 0.197200 0.036590 -0.211910 
-0.786580 15.764080 6.968900 -25.163968 82.923018 -31.716056 -15.243539 15.192588 2.341305 14.763794 -2.857455 0.010644 3.629869 7.037695 34.428705 0.148089 6.902078 2.073684 0.199740 0.144800 0.283060 18.040560 -9.909632 3.559785 0.174144 3.683957 -40.547558 -17.938160 0.589540 34.471410 -0.377838 -3.873748 2.803694 0.126570 -0.111230 0.056720 -2.731127 -5.671834 -7.503417 3.081606 -9.382616 19.168434 -2.315797 -8.463050 6.981717 1.728578 -8.497688 -12.121945 -20.614411 15.725717 30.155361 -11.301320 14.444260 -19.241070 -34.031245 -17.730912 7.224473 -46.917995 -17.174172 -4.650506 -23.687879 -58.809917 8.525861 -3.176207 3.375631 0.490750 -0.096920 0.235370 -0.013190 31.834895 19.487155 9.968019 60.146894 7.149645 -20.904488 -64.935985 77.395021 -49.995739 1.290674 0.961024 -0.186220 0.203610 0.020670 -0.221680 
-0.761230 15.846300 6.993910 -92.695731 87.316576 -100.800914 -15.315739 15.054826 2.267464 15.157837 -2.610351 -0.323169 6.552246 5.410507 32.618487 -0.002570 6.374315 2.251015 0.229760 0.200790 0.280590 17.836681 -10.809618 3.318531 -3.154193 2.390999 -37.532481 -16.357782 -0.226882 36.063031 -0.395193 -4.219665 2.679823 0.191430 -0.057940 0.069750 -2.989741 -5.613116 -7.312989 2.828222 -8.277042 18.665587 -2.002802 -7.101410 9.723817 1.191208 -8.098278 -12.807304 -20.530900 16.558383 33.366705 -9.992750 14.849320 -16.797840 -35.485911 -21.516681 9.051346 -41.525045 -21.926947 -5.301921 -6.207724 -61.921583 -0.735283 -3.242222 3.234473 0.448810 -0.035130 0.212540 0.007670 34.196491 23.587940 10.450364 52.008834 12.039839 -14.705964 -79.750318 60.499137 -49.890248 1.588336 0.050374 -0.195510 0.231330 0.021390 -0.212380 
-0.718110 15.973110 7.030130 -161.018119 84.043083 -170.373025 -15.475451 15.618739 2.387427 15.587111 -2.056611 -1.046551 7.715079 4.722062 29.461681 -0.134114 5.999221 2.391356 0.271630 0.269180 0.279230 17.626079 -10.812821 2.823354 -6.327068 1.077523 -32.938528 -14.404198 -0.986064 35.474803 -0.348624 -4.158685 2.694106 0.265230 -0.009240 0.078690 -2.847238 -5.307256 -7.152266 1.620585 -6.795508 17.643752 -1.715503 -5.539872 12.822929 0.705166 -7.734406 -12.934436 -20.299141 16.393164 35.167174 -8.494420 14.217550 -15.339700 -34.082514 -23.402695 9.306676 -39.140204 -27.087410 -4.317515 18.595298 -63.382288 -13.807216 -3.435597 2.790999 0.403920 0.016510 0.185320 0.031340 33.433218 25.871974 10.636343 44.420944 15.534648 -12.512441 -84.962054 49.529600 -46.971880 1.841191 -0.751163 -0.201170 0.260920 0.017400 -0.199120 
-0.646500 16.113140 7.056160 -170.133187 79.971439 -179.839399 -15.317453 15.688073 2.393554 15.891340 -1.499953 -1.665111 7.580431 4.541603 26.284613 -0.231106 5.660250 2.525434 0.317210 0.348520 0.258680 17.793614 -10.989341 2.418505 -8.702273 0.282980 -28.831472 -12.239105 -1.698872 33.690971 -0.268755 -4.014113 2.748267 0.350630 0.061230 0.091600 -2.582204 -5.230479 -6.849908 1.523776 -5.877872 15.967054 -1.299710 -4.549372 15.003343 -0.078058 -8.425476 -12.005157 -21.478118 16.081448 32.611189 -7.607420 13.207640 -14.549360 -30.881334 -21.886125 8.277795 -40.652664 -30.847466 -1.304571 47.837629 -65.517159 -31.307734 -3.582564 2.170815 0.321090 0.081430 0.133390 0.068240 31.390606 25.050001 9.863425 37.740676 16.448746 -10.365309 -93.631821 46.458662 -51.301582 1.852721 -0.981711 -0.198070 0.287950 0.011350 -0.165670 
-0.575280 16.294820 7.085840 -174.297914 76.753195 175.667125 -15.232804 15.614029 2.396981 16.029706 -1.024580 -1.763917 6.644812 4.656865 23.556535 -0.304479 5.447366 2.624387 0.361620 0.426430 0.239150 17.898135 -11.171380 2.082776 -10.429426 -0.355343 -24.686684 -10.475998 -2.117589 30.477450 -0.186824 -3.756975 2.856024 0.435920 0.134430 0.099020 -2.598276 -5.026943 -6.549682 1.828523 -5.354399 14.452599 -2.140943 -3.878630 17.232808 -0.839494 -8.945745 -11.368802 -22.057841 15.897257 29.766685 -6.775340 12.528770 -14.107650 -26.794063 -19.928773 7.723904 -39.792798 -33.491676 2.983359 81.212980 -60.862460 -52.297706 -3.795064 1.677102 0.244940 0.145040 0.082160 0.108560 28.339198 23.658371 8.941973 33.002650 17.573080 -7.410209 -104.078844 45.551529 -60.350435 1.826671 -1.122782 -0.202650 0.322340 0.002060 -0.133980 
-0.506900 16.512830 7.122670 -177.680491 74.685111 171.895441 -15.188370 15.457483 2.384624 15.701523 -0.656306 -1.723578 5.513665 4.863717 22.094407 -0.362622 5.376214 2.670195 0.397960 0.486300 0.242550 17.963251 -11.332628 1.864560 -11.817685 -0.917935 -20.384735 -8.935173 -2.306430 25.377103 -0.104643 -3.410133 3.001999 0.511720 0.194390 0.116000 -2.737903 -4.665487 -6.298921 2.000378 -4.681567 13.220999 -3.836593 -3.022143 19.148501 -1.365033 -8.909829 -10.620891 -21.184728 15.694547 27.972658 -6.853350 12.529800 -13.622530 -21.898602 -18.656892 6.270246 -34.400266 -35.350304 6.006273 94.067623 -54.485645 -58.530929 -3.938668 1.873768 0.177560 0.217620 0.038210 0.135300 23.991131 22.220067 8.258290 27.871620 19.470879 -3.569151 -113.551314 46.171375 -71.853081 1.810407 -1.258971 -0.213630 0.340710 -0.009990 -0.120370 
-0.434990 16.739380 7.171370 177.964869 73.279163 167.555688 -15.183219 15.246324 2.339307 14.857436 -0.280006 -2.151561 3.977477 5.316643 22.149712 -0.406665 5.419164 2.664171 0.429770 0.539050 0.247710 18.001452 -11.371165 1.814970 -13.156049 -1.179598 -16.567142 -7.313592 -2.423451 19.762916 -0.056709 -3.184470 3.113851 0.581730 0.237340 0.117280 -2.844553 -4.329610 -6.130176 1.371465 -3.619040 12.170989 -4.867824 -1.703400 20.375246 -2.004550 -9.186145 -10.056998 -21.020310 15.018293 26.263620 -7.174210 11.768920 -13.568000 -15.688452 -15.943672 4.897489 -29.268494 -35.792309 8.364195 103.362971 -50.545570 -63.828039 -4.005153 2.076996 0.124680 0.270030 0.000020 0.154350 18.671743 20.272475 7.403299 22.439832 21.468533 0.268835 -123.615052 46.555255 -84.996708 1.818943 -1.494987 -0.229150 0.366990 -0.020680 -0.110600 
-0.376350 16.975830 7.225500 174.468542 71.801372 163.341089 -15.197651 15.016636 2.270821 13.840836 -0.015371 -3.168712 2.922416 5.932056 24.964059 -0.375666 5.651247 2.580335 0.430490 0.537120 0.234730 17.983576 -11.456118 1.954051 -14.448161 -1.296247 -12.508983 -5.664976 -2.656145 14.733111 -0.072319 -3.232781 3.151093 0.590080 0.257700 0.106750 -3.060715 -3.724000 -6.119011 0.928307 -1.803015 12.736830 -5.628173 0.561056 20.943980 -1.825808 -9.408216 -9.698338 -21.052876 13.975073 26.716444 -7.141130 10.524750 -13.091640 -11.255188 -13.432863 4.127884 -21.639536 -34.750171 8.848668 113.310712 -49.954517 -72.928909 -4.048607 2.222267 0.112750 0.279130 -0.019340 0.171950 13.655402 19.071639 6.477496 12.933912 21.948598 1.353362 -131.584492 45.939767 -93.914609 1.847713 -1.670459 -0.240540 0.379630 -0.030350 -0.098500 
-0.308260 17.214100 7.288260 171.087916 70.242702 159.069822 -15.240779 14.799957 2.242115 12.377983 0.006370 -4.965902 2.322613 6.808421 30.223086 -0.251894 6.168847 2.367581 0.420460 0.519290 0.228450 17.937336 -11.507682 2.123712 -15.608518 -1.253336 -9.220750 -4.446733 -2.919957 11.548121 -0.126570 -3.456509 3.104011 0.564540 0.246600 0.112090 -3.153805 -3.166004 -6.178501 -0.636582 0.301697 13.698954 -5.800720 3.101015 20.906861 -1.209672 -9.128094 -9.257541 -20.159615 13.918886 28.493352 -7.184580 10.764240 -12.333560 -8.246008 -10.483694 3.702930 -13.425543 -31.646095 8.212210 126.497682 -47.683234 -84.517503 -4.103252 2.511198 0.107810 0.272610 -0.019230 0.171900 9.326850 17.294312 5.174561 4.034081 22.186314 1.807665 -137.376865 46.489116 -101.325425 1.907349 -1.763014 -0.226670 0.346070 -0.038290 -0.094310 
